<svg width="579pt" height="238pt"
 viewBox="0.00 0.00 579.13 238.00" xmlns="http://www.w3.org/2000/svg" xmlns:xlink="http://www.w3.org/1999/xlink">
<g id="graph0" class="graph" transform="scale(1 1) rotate(0) translate(4 234)">
<title>%0</title>
<polygon fill="#ffffff" stroke="transparent" points="-4,4 -4,-234 575.1327,-234 575.1327,4 -4,4"/>
<text text-anchor="middle" x="285.5663" y="-194.5" font-family="Times,serif" font-size="35.00" fill="#000000">app</text>
<!-- :app -->
<g id="node1" class="node">
<title>:app</title>
<ellipse fill="#81c784" stroke="#000000" cx="289.1854" cy="-162" rx="27.8286" ry="18"/>
<text text-anchor="middle" x="289.1854" y="-157.8" font-family="Times New Roman" font-size="14.00" fill="#000000">:app</text>
</g>
<!-- :app&#45;&gt;:app -->
<g id="edge1" class="edge">
<title>:app&#45;&gt;:app</title>
<path fill="none" stroke="#000000" d="M309.3739,-174.4321C322.3556,-177.6753 334.8492,-173.5313 334.8492,-162 334.8492,-153.5317 328.1113,-149.0474 319.3904,-148.5471"/>
<polygon fill="#000000" stroke="#000000" points="318.9675,-145.072 309.3739,-149.5679 319.6773,-152.0359 318.9675,-145.072"/>
</g>
<!-- :shared:sa&#45;analytics -->
<g id="node2" class="node">
<title>:shared:sa&#45;analytics</title>
<ellipse fill="#81c784" stroke="#000000" cx="87.1854" cy="-18" rx="87.3712" ry="18"/>
<text text-anchor="middle" x="87.1854" y="-13.8" font-family="Times New Roman" font-size="14.00" fill="#000000">:shared:sa&#45;analytics</text>
</g>
<!-- :app&#45;&gt;:shared:sa&#45;analytics -->
<g id="edge2" class="edge">
<title>:app&#45;&gt;:shared:sa&#45;analytics</title>
<path fill="none" stroke="#000000" d="M266.9938,-150.8629C247.2886,-140.6324 218.0082,-124.5828 194.1854,-108 165.2137,-87.8331 134.6296,-61.5363 113.6138,-42.5814"/>
<polygon fill="#000000" stroke="#000000" points="115.8043,-39.8426 106.051,-35.7043 111.0948,-45.0215 115.8043,-39.8426"/>
</g>
<!-- :shared:sa&#45;network -->
<g id="node3" class="node">
<title>:shared:sa&#45;network</title>
<ellipse fill="#81c784" stroke="#000000" cx="295.1854" cy="-18" rx="84.5073" ry="18"/>
<text text-anchor="middle" x="295.1854" y="-13.8" font-family="Times New Roman" font-size="14.00" fill="#000000">:shared:sa&#45;network</text>
</g>
<!-- :app&#45;&gt;:shared:sa&#45;network -->
<g id="edge3" class="edge">
<title>:app&#45;&gt;:shared:sa&#45;network</title>
<path fill="none" stroke="#000000" d="M299.293,-145.1647C304.8949,-134.8361 311.2966,-121.1159 314.1854,-108 317.6269,-92.3745 316.8791,-87.7716 314.1854,-72 312.6866,-63.2245 309.9103,-53.9785 306.9341,-45.6659"/>
<polygon fill="#000000" stroke="#000000" points="310.1127,-44.1782 303.2771,-36.0835 303.5727,-46.6742 310.1127,-44.1782"/>
</g>
<!-- :shared:sa&#45;data -->
<g id="node4" class="node">
<title>:shared:sa&#45;data</title>
<ellipse fill="#81c784" stroke="#000000" cx="484.1854" cy="-18" rx="68.8946" ry="18"/>
<text text-anchor="middle" x="484.1854" y="-13.8" font-family="Times New Roman" font-size="14.00" fill="#000000">:shared:sa&#45;data</text>
</g>
<!-- :app&#45;&gt;:shared:sa&#45;data -->
<g id="edge4" class="edge">
<title>:app&#45;&gt;:shared:sa&#45;data</title>
<path fill="none" stroke="#000000" d="M307.5305,-148.4528C340.8813,-123.8246 411.7912,-71.4603 452.9083,-41.0969"/>
<polygon fill="#000000" stroke="#000000" points="454.995,-43.9069 460.9602,-35.1509 450.8366,-38.2759 454.995,-43.9069"/>
</g>
<!-- :wlshop -->
<g id="node5" class="node">
<title>:wlshop</title>
<ellipse fill="#81c784" stroke="#000000" cx="245.1854" cy="-90" rx="41.7327" ry="18"/>
<text text-anchor="middle" x="245.1854" y="-85.8" font-family="Times New Roman" font-size="14.00" fill="#000000">:wlshop</text>
</g>
<!-- :app&#45;&gt;:wlshop -->
<g id="edge5" class="edge">
<title>:app&#45;&gt;:wlshop</title>
<path fill="none" stroke="#000000" d="M278.758,-144.937C273.5198,-136.3654 267.0579,-125.7914 261.2066,-116.2165"/>
<polygon fill="#000000" stroke="#000000" points="264.0446,-114.1484 255.8436,-107.4407 258.0716,-117.7986 264.0446,-114.1484"/>
</g>
<!-- :shared:sa&#45;analytics&#45;&gt;:shared:sa&#45;analytics -->
<g id="edge6" class="edge">
<title>:shared:sa&#45;analytics&#45;&gt;:shared:sa&#45;analytics</title>
<path fill="none" stroke="#000000" d="M145.8618,-31.3498C170.9469,-32.3992 192.3708,-27.9492 192.3708,-18 192.3708,-9.411 176.4046,-4.9204 155.8999,-4.5282"/>
<polygon fill="#000000" stroke="#000000" points="155.8185,-1.0288 145.8618,-4.6502 155.9036,-8.0283 155.8185,-1.0288"/>
</g>
<!-- :shared:sa&#45;network&#45;&gt;:shared:sa&#45;network -->
<g id="edge7" class="edge">
<title>:shared:sa&#45;network&#45;&gt;:shared:sa&#45;network</title>
<path fill="none" stroke="#000000" d="M352.1066,-31.3385C376.6636,-32.4305 397.689,-27.9844 397.689,-18 397.689,-9.4197 382.1612,-4.9295 362.2084,-4.5294"/>
<polygon fill="#000000" stroke="#000000" points="362.0599,-1.0309 352.1066,-4.6615 362.1515,-8.0303 362.0599,-1.0309"/>
</g>
<!-- :shared:sa&#45;data&#45;&gt;:shared:sa&#45;data -->
<g id="edge8" class="edge">
<title>:shared:sa&#45;data&#45;&gt;:shared:sa&#45;data</title>
<path fill="none" stroke="#000000" d="M531.1439,-31.2619C552.5366,-32.6159 571.1327,-28.1953 571.1327,-18 571.1327,-9.4774 558.1379,-4.99 541.3775,-4.538"/>
<polygon fill="#000000" stroke="#000000" points="541.0735,-1.0432 531.1439,-4.7381 541.2104,-8.0418 541.0735,-1.0432"/>
</g>
<!-- :wlshop&#45;&gt;:shared:sa&#45;analytics -->
<g id="edge10" class="edge">
<title>:wlshop&#45;&gt;:shared:sa&#45;analytics</title>
<path fill="none" stroke="#000000" stroke-dasharray="1,5" d="M216.2057,-76.7941C192.7762,-66.1173 159.375,-50.8965 132.4279,-38.6168"/>
<polygon fill="#000000" stroke="#000000" points="133.7435,-35.3701 123.1924,-34.4083 130.8408,-41.74 133.7435,-35.3701"/>
</g>
<!-- :wlshop&#45;&gt;:shared:sa&#45;network -->
<g id="edge11" class="edge">
<title>:wlshop&#45;&gt;:shared:sa&#45;network</title>
<path fill="none" stroke="#000000" stroke-dasharray="1,5" d="M257.289,-72.5708C263.175,-64.095 270.3744,-53.7279 276.911,-44.3151"/>
<polygon fill="#000000" stroke="#000000" points="279.8419,-46.2307 282.6711,-36.0206 274.0923,-42.2379 279.8419,-46.2307"/>
</g>
<!-- :wlshop&#45;&gt;:shared:sa&#45;data -->
<g id="edge12" class="edge">
<title>:wlshop&#45;&gt;:shared:sa&#45;data</title>
<path fill="none" stroke="#000000" stroke-dasharray="1,5" d="M279.4283,-79.6842C318.5095,-67.9107 382.9757,-48.4899 429.1353,-34.5841"/>
<polygon fill="#000000" stroke="#000000" points="430.4179,-37.8532 438.9833,-31.6174 428.3987,-31.1507 430.4179,-37.8532"/>
</g>
<!-- :wlshop&#45;&gt;:wlshop -->
<g id="edge9" class="edge">
<title>:wlshop&#45;&gt;:wlshop</title>
<path fill="none" stroke="#000000" d="M274.3243,-102.8993C290.2317,-105.1982 304.8016,-100.8984 304.8016,-90 304.8016,-81.4856 295.9088,-76.9987 284.433,-76.5393"/>
<polygon fill="#000000" stroke="#000000" points="284.1148,-73.0515 274.3243,-77.1007 284.503,-80.0407 284.1148,-73.0515"/>
</g>
</g>
</svg>
