<svg width="737pt" height="238pt"
 viewBox="0.00 0.00 737.10 238.00" xmlns="http://www.w3.org/2000/svg" xmlns:xlink="http://www.w3.org/1999/xlink">
<g id="graph0" class="graph" transform="scale(1 1) rotate(0) translate(4 234)">
<title>%0</title>
<polygon fill="#ffffff" stroke="transparent" points="-4,4 -4,-234 733.101,-234 733.101,4 -4,4"/>
<text text-anchor="middle" x="364.5505" y="-194.5" font-family="Times,serif" font-size="35.00" fill="#000000">app</text>
<!-- :app -->
<g id="node1" class="node">
<title>:app</title>
<ellipse fill="#81c784" stroke="#000000" cx="384.1854" cy="-162" rx="27.8286" ry="18"/>
<text text-anchor="middle" x="384.1854" y="-157.8" font-family="Times New Roman" font-size="14.00" fill="#000000">:app</text>
</g>
<!-- :app&#45;&gt;:app -->
<g id="edge1" class="edge">
<title>:app&#45;&gt;:app</title>
<path fill="none" stroke="#000000" d="M404.3739,-174.4321C417.3556,-177.6753 429.8492,-173.5313 429.8492,-162 429.8492,-153.5317 423.1113,-149.0474 414.3904,-148.5471"/>
<polygon fill="#000000" stroke="#000000" points="413.9675,-145.072 404.3739,-149.5679 414.6773,-152.0359 413.9675,-145.072"/>
</g>
<!-- :shared:sa&#45;analytics -->
<g id="node2" class="node">
<title>:shared:sa&#45;analytics</title>
<ellipse fill="#81c784" stroke="#000000" cx="87.1854" cy="-18" rx="87.3712" ry="18"/>
<text text-anchor="middle" x="87.1854" y="-13.8" font-family="Times New Roman" font-size="14.00" fill="#000000">:shared:sa&#45;analytics</text>
</g>
<!-- :app&#45;&gt;:shared:sa&#45;analytics -->
<g id="edge2" class="edge">
<title>:app&#45;&gt;:shared:sa&#45;analytics</title>
<path fill="none" stroke="#000000" d="M361.8621,-151.1766C312.7445,-127.362 194.582,-70.0711 130.4115,-38.9581"/>
<polygon fill="#000000" stroke="#000000" points="131.8753,-35.7782 121.3501,-34.5647 128.8213,-42.0769 131.8753,-35.7782"/>
</g>
<!-- :shared:sa&#45;network -->
<g id="node3" class="node">
<title>:shared:sa&#45;network</title>
<ellipse fill="#81c784" stroke="#000000" cx="295.1854" cy="-18" rx="84.5073" ry="18"/>
<text text-anchor="middle" x="295.1854" y="-13.8" font-family="Times New Roman" font-size="14.00" fill="#000000">:shared:sa&#45;network</text>
</g>
<!-- :app&#45;&gt;:shared:sa&#45;network -->
<g id="edge3" class="edge">
<title>:app&#45;&gt;:shared:sa&#45;network</title>
<path fill="none" stroke="#000000" d="M367.3906,-147.2093C356.5641,-137.0093 342.7696,-122.687 333.1854,-108 320.5159,-88.585 310.5425,-64.2449 303.998,-45.774"/>
<polygon fill="#000000" stroke="#000000" points="307.2664,-44.5148 300.7196,-36.1848 300.6428,-46.7793 307.2664,-44.5148"/>
</g>
<!-- :shared:sa&#45;data -->
<g id="node4" class="node">
<title>:shared:sa&#45;data</title>
<ellipse fill="#81c784" stroke="#000000" cx="484.1854" cy="-18" rx="68.8946" ry="18"/>
<text text-anchor="middle" x="484.1854" y="-13.8" font-family="Times New Roman" font-size="14.00" fill="#000000">:shared:sa&#45;data</text>
</g>
<!-- :app&#45;&gt;:shared:sa&#45;data -->
<g id="edge4" class="edge">
<title>:app&#45;&gt;:shared:sa&#45;data</title>
<path fill="none" stroke="#000000" d="M405.2689,-150.0783C420.5097,-140.4872 440.56,-125.7136 453.1854,-108 466.3771,-89.4918 474.342,-64.8944 478.8887,-46.0922"/>
<polygon fill="#000000" stroke="#000000" points="482.3076,-46.841 481.0744,-36.3182 475.4763,-45.3133 482.3076,-46.841"/>
</g>
<!-- :shared:ui&#45;ds -->
<g id="node5" class="node">
<title>:shared:ui&#45;ds</title>
<ellipse fill="#81c784" stroke="#000000" cx="650.1854" cy="-18" rx="60.8313" ry="18"/>
<text text-anchor="middle" x="650.1854" y="-13.8" font-family="Times New Roman" font-size="14.00" fill="#000000">:shared:ui&#45;ds</text>
</g>
<!-- :app&#45;&gt;:shared:ui&#45;ds -->
<g id="edge5" class="edge">
<title>:app&#45;&gt;:shared:ui&#45;ds</title>
<path fill="none" stroke="#000000" d="M405.5036,-150.4593C450.3478,-126.1828 554.9731,-69.5435 611.8021,-38.7789"/>
<polygon fill="#000000" stroke="#000000" points="613.7024,-41.7302 620.8302,-33.8915 610.3699,-35.5743 613.7024,-41.7302"/>
</g>
<!-- :wlshop -->
<g id="node6" class="node">
<title>:wlshop</title>
<ellipse fill="#81c784" stroke="#000000" cx="384.1854" cy="-90" rx="41.7327" ry="18"/>
<text text-anchor="middle" x="384.1854" y="-85.8" font-family="Times New Roman" font-size="14.00" fill="#000000">:wlshop</text>
</g>
<!-- :app&#45;&gt;:wlshop -->
<g id="edge6" class="edge">
<title>:app&#45;&gt;:wlshop</title>
<path fill="none" stroke="#000000" d="M384.1854,-143.8314C384.1854,-136.131 384.1854,-126.9743 384.1854,-118.4166"/>
<polygon fill="#000000" stroke="#000000" points="387.6855,-118.4132 384.1854,-108.4133 380.6855,-118.4133 387.6855,-118.4132"/>
</g>
<!-- :shared:sa&#45;analytics&#45;&gt;:shared:sa&#45;analytics -->
<g id="edge7" class="edge">
<title>:shared:sa&#45;analytics&#45;&gt;:shared:sa&#45;analytics</title>
<path fill="none" stroke="#000000" d="M145.8618,-31.3498C170.9469,-32.3992 192.3708,-27.9492 192.3708,-18 192.3708,-9.411 176.4046,-4.9204 155.8999,-4.5282"/>
<polygon fill="#000000" stroke="#000000" points="155.8185,-1.0288 145.8618,-4.6502 155.9036,-8.0283 155.8185,-1.0288"/>
</g>
<!-- :shared:sa&#45;network&#45;&gt;:shared:sa&#45;network -->
<g id="edge8" class="edge">
<title>:shared:sa&#45;network&#45;&gt;:shared:sa&#45;network</title>
<path fill="none" stroke="#000000" d="M352.1066,-31.3385C376.6636,-32.4305 397.689,-27.9844 397.689,-18 397.689,-9.4197 382.1612,-4.9295 362.2084,-4.5294"/>
<polygon fill="#000000" stroke="#000000" points="362.0599,-1.0309 352.1066,-4.6615 362.1515,-8.0303 362.0599,-1.0309"/>
</g>
<!-- :shared:sa&#45;data&#45;&gt;:shared:sa&#45;data -->
<g id="edge9" class="edge">
<title>:shared:sa&#45;data&#45;&gt;:shared:sa&#45;data</title>
<path fill="none" stroke="#000000" d="M531.1439,-31.2619C552.5366,-32.6159 571.1327,-28.1953 571.1327,-18 571.1327,-9.4774 558.1379,-4.99 541.3775,-4.538"/>
<polygon fill="#000000" stroke="#000000" points="541.0735,-1.0432 531.1439,-4.7381 541.2104,-8.0418 541.0735,-1.0432"/>
</g>
<!-- :shared:ui&#45;ds&#45;&gt;:shared:ui&#45;ds -->
<g id="edge10" class="edge">
<title>:shared:ui&#45;ds&#45;&gt;:shared:ui&#45;ds</title>
<path fill="none" stroke="#000000" d="M692.0013,-31.2025C711.7539,-32.7368 729.101,-28.3359 729.101,-18 729.101,-9.5213 717.4279,-5.0364 702.3295,-4.5453"/>
<polygon fill="#000000" stroke="#000000" points="701.9128,-1.0543 692.0013,-4.7975 702.0837,-8.0522 701.9128,-1.0543"/>
</g>
<!-- :wlshop&#45;&gt;:shared:sa&#45;analytics -->
<g id="edge12" class="edge">
<title>:wlshop&#45;&gt;:shared:sa&#45;analytics</title>
<path fill="none" stroke="#000000" stroke-dasharray="1,5" d="M347.7673,-81.1714C299.4935,-69.4686 213.4402,-48.6072 153.4854,-34.0727"/>
<polygon fill="#000000" stroke="#000000" points="154.2691,-30.6614 143.726,-31.7068 152.6199,-37.4644 154.2691,-30.6614"/>
</g>
<!-- :wlshop&#45;&gt;:shared:sa&#45;network -->
<g id="edge13" class="edge">
<title>:wlshop&#45;&gt;:shared:sa&#45;network</title>
<path fill="none" stroke="#000000" stroke-dasharray="1,5" d="M364.4334,-74.0209C352.7284,-64.5517 337.674,-52.3728 324.5931,-41.7905"/>
<polygon fill="#000000" stroke="#000000" points="326.7269,-39.0148 316.7511,-35.4464 322.3243,-44.457 326.7269,-39.0148"/>
</g>
<!-- :wlshop&#45;&gt;:shared:sa&#45;data -->
<g id="edge14" class="edge">
<title>:wlshop&#45;&gt;:shared:sa&#45;data</title>
<path fill="none" stroke="#000000" stroke-dasharray="1,5" d="M405.8839,-74.3771C419.3291,-64.6965 436.8455,-52.0847 451.9008,-41.2449"/>
<polygon fill="#000000" stroke="#000000" points="454.361,-43.7864 460.4313,-35.1029 450.2709,-38.1056 454.361,-43.7864"/>
</g>
<!-- :wlshop&#45;&gt;:shared:ui&#45;ds -->
<g id="edge15" class="edge">
<title>:wlshop&#45;&gt;:shared:ui&#45;ds</title>
<path fill="none" stroke="#000000" stroke-dasharray="1,5" d="M419.5081,-80.439C464.383,-68.2924 542.3219,-47.1961 595.0528,-32.9231"/>
<polygon fill="#000000" stroke="#000000" points="596.1803,-36.2439 604.9185,-30.2527 594.3514,-29.4871 596.1803,-36.2439"/>
</g>
<!-- :wlshop&#45;&gt;:wlshop -->
<g id="edge11" class="edge">
<title>:wlshop&#45;&gt;:wlshop</title>
<path fill="none" stroke="#000000" d="M413.3243,-102.8993C429.2317,-105.1982 443.8016,-100.8984 443.8016,-90 443.8016,-81.4856 434.9088,-76.9987 423.433,-76.5393"/>
<polygon fill="#000000" stroke="#000000" points="423.1148,-73.0515 413.3243,-77.1007 423.503,-80.0407 423.1148,-73.0515"/>
</g>
</g>
</svg>
